<svg xmlns="http://www.w3.org/2000/svg" width="53.642" height="53.709" viewBox="0 0 53.642 53.709">
  <g id="email" transform="translate(-440.679 -713.695)">
    <path id="email-2" data-name="email" d="M60.279,26.639,51.206,21.8V8.361a.877.877,0,0,0-.861-.861H17.5a.877.877,0,0,0-.861.861V21.8L7.564,26.639a.919.919,0,0,0-.464.795V58.162a3.038,3.038,0,0,0,3.046,3.046H57.7a3.038,3.038,0,0,0,3.046-3.046V27.368A.814.814,0,0,0,60.279,26.639ZM18.358,9.222H49.484v25.3L33.921,42.864,18.358,34.52ZM8.822,27.9l7.815-4.172v9.868L8.822,29.487Zm50.2,30.2A1.328,1.328,0,0,1,57.7,59.421H10.146A1.328,1.328,0,0,1,8.822,58.1V31.407l24.7,13.179a.844.844,0,0,0,.795,0l24.7-13.179Zm0-28.609-7.815,4.172V23.725L59.021,27.9Z" transform="translate(433.579 706.195)"/>
    <path id="Path_2521" data-name="Path 2521" d="M27,71.5H13.161a.877.877,0,0,0-.861.861v6.026a.877.877,0,0,0,.861.861H27a.877.877,0,0,0,.861-.861V72.361A.877.877,0,0,0,27,71.5Zm-.861,6.026H14.022v-4.3H26.141v4.3Z" transform="translate(431.822 684.579)" fill="#306ee3"/>
    <path id="Path_2522" data-name="Path 2522" d="M27.561,19.654h10.4a.877.877,0,0,0,.861-.861V13.561a.877.877,0,0,0-.861-.861h-10.4a.877.877,0,0,0-.861.861v5.166A.892.892,0,0,0,27.561,19.654Zm.861-5.232H37.1v3.444H28.422Z" transform="translate(426.959 704.439)" fill="#306ee3"/>
    <path id="Path_2523" data-name="Path 2523" d="M27.561,32.122H43.124a.861.861,0,1,0,0-1.722H27.561a.861.861,0,0,0,0,1.722Z" transform="translate(426.959 698.461)" fill="#306ee3"/>
    <path id="Path_2524" data-name="Path 2524" d="M54.961,30.3a.861.861,0,1,0,0,1.722h.861a.861.861,0,0,0,0-1.722Z" transform="translate(417.704 698.495)"/>
    <path id="Path_2525" data-name="Path 2525" d="M27.561,39.722h25.96a.861.861,0,1,0,0-1.722H27.561a.861.861,0,1,0,0,1.722Z" transform="translate(426.959 695.894)" fill="#306ee3"/>
    <path id="Path_2526" data-name="Path 2526" d="M27.561,45.622H43.124a.861.861,0,1,0,0-1.722H27.561a.861.861,0,1,0,0,1.722Z" transform="translate(426.959 693.901)" fill="#306ee3"/>
    <path id="Path_2527" data-name="Path 2527" d="M55.822,43.9h-.861a.861.861,0,1,0,0,1.722h.861a.877.877,0,0,0,.861-.861A.835.835,0,0,0,55.822,43.9Z" transform="translate(417.704 693.901)"/>
  </g>
</svg>
