<svg xmlns="http://www.w3.org/2000/svg" width="47" height="47.776" viewBox="0 0 47 47.776">
  <g id="Employee_Productivity" data-name="Employee Productivity" transform="translate(-3874.098 4686.526)">
    <path id="Path_6616" data-name="Path 6616" d="M120.891.658A2.243,2.243,0,0,0,119.3,0H76.808a2.252,2.252,0,0,0,0,4.5h1.008V32.04a.708.708,0,0,0,.708.707H87.3a.707.707,0,1,0,0-1.413H79.228V4.5h37.648v26.83H95.37a.707.707,0,0,0,0,1.413h1.976v7.6a3.75,3.75,0,1,0,1.413,0v-7.6h18.826a.708.708,0,0,0,.707-.707V4.5H119.3A2.251,2.251,0,0,0,120.891.658Zm-20.5,43.375A2.337,2.337,0,1,1,98.052,41.7,2.345,2.345,0,0,1,100.39,44.033Zm19.5-41.19a.84.84,0,0,1-.595.248H76.808a.839.839,0,1,1,0-1.678H119.3a.835.835,0,0,1,.594,1.43Z" transform="translate(3799.544 -4686.526)" fill="#0667fd"/>
    <path id="Path_6617" data-name="Path 6617" d="M263.655,367.27a.707.707,0,1,0,.706.707A.707.707,0,0,0,263.655,367.27Z" transform="translate(3627.222 -5022.462)" fill="#0667fd"/>
    <path id="Path_6618" data-name="Path 6618" d="M250.961,137.226A8.329,8.329,0,0,0,259.2,128.9c0-.036,0-.073,0-.109a.7.7,0,0,0-.213-.5.709.709,0,0,0-.5-.2l-6.933.09a.471.471,0,0,0,0-.075l-.088-6.847a.708.708,0,0,0-.717-.7,8.334,8.334,0,0,0-8.232,8.334c0,.038,0,.075,0,.111a8.328,8.328,0,0,0,8.334,8.223h.113Zm-7.035-8.241v-.093a6.916,6.916,0,0,1,6.131-6.876l.079,6.1a.706.706,0,0,1,.01.781.709.709,0,0,0,.706.7h.01l6.892-.089a6.9,6.9,0,0,1-6.81,6.3h-.1a6.946,6.946,0,0,1-6.922-6.828Z" transform="translate(3645.915 -4796.798)" fill="#0667fd"/>
    <path id="Path_6619" data-name="Path 6619" d="M359.924,105.8h.01l7.635-.1a.707.707,0,0,0,.7-.715,8.336,8.336,0,0,0-8.341-8.227c-.037,0-.066,0-.083,0h-.021a.707.707,0,0,0-.7.716l.1,7.627a.708.708,0,0,0,.707.7Zm6.884-1.5-6.187.083-.08-6.182a6.939,6.939,0,0,1,6.267,6.1Z" transform="translate(3539.257 -4775.024)" fill="#0667fd"/>
  </g>
</svg>
