<svg xmlns="http://www.w3.org/2000/svg" width="51.983" height="51.962" viewBox="0 0 51.983 51.962">
  <g id="phone" transform="translate(-440.005 -545.001)">
    <path id="Path_2516" data-name="Path 2516" d="M61.586,51.138,51.055,44.073a3.11,3.11,0,0,0-4.132.667l-3.066,3.932A1.263,1.263,0,0,1,42.19,49l-.533-.267c-1.933-1.066-4.332-2.4-9.2-7.2s-6.132-7.265-7.2-9.2l-.333-.6a1.249,1.249,0,0,1,.333-1.666l3.932-3.066a3.11,3.11,0,0,0,.667-4.132l-7-10.464a3.082,3.082,0,0,0-4.132-.933l-4.4,2.666a5.953,5.953,0,0,0-2.8,3.666c-1.6,5.8-.4,15.73,14.263,30.393C37.458,59.869,46.189,63,52.121,63a16.592,16.592,0,0,0,4.066-.533,6.2,6.2,0,0,0,3.666-2.8l2.666-4.4A2.993,2.993,0,0,0,61.586,51.138Zm-.533,3.2-2.666,4.4A4.6,4.6,0,0,1,55.72,60.8c-5.332,1.466-14.6.267-28.727-13.8S11.73,23.544,13.2,18.278a4.6,4.6,0,0,1,2.066-2.666l4.4-2.666a1.366,1.366,0,0,1,1.8.4l3.8,5.732,3.2,4.8a1.347,1.347,0,0,1-.267,1.8l-3.932,3.066a3.017,3.017,0,0,0-.8,3.866l.333.6c1.133,2,2.466,4.532,7.532,9.6,5,5,7.532,6.4,9.6,7.532l.6.333a2.986,2.986,0,0,0,3.866-.8l3.066-3.932a1.336,1.336,0,0,1,1.8-.267l10.531,7A1.278,1.278,0,0,1,61.053,54.337Z" transform="translate(429.013 533.961)"/>
    <path id="Path_2517" data-name="Path 2517" d="M54.766,23.133A14.735,14.735,0,0,1,69.5,37.863a.866.866,0,1,0,1.733,0A16.5,16.5,0,0,0,54.766,21.4a.866.866,0,0,0,0,1.733Z" transform="translate(414.704 530.506)" fill="#306ee3"/>
    <path id="Path_2518" data-name="Path 2518" d="M54.766,30.933A9.529,9.529,0,0,1,64.3,40.464a.866.866,0,0,0,1.733,0A11.293,11.293,0,0,0,54.766,29.2a.866.866,0,0,0,0,1.733Z" transform="translate(414.704 527.905)" fill="#306ee3"/>
    <path id="Path_2519" data-name="Path 2519" d="M54.766,38.733A4.324,4.324,0,0,1,59.1,43.065a.866.866,0,0,0,1.733,0A6.087,6.087,0,0,0,54.766,37a.866.866,0,0,0,0,1.733Z" transform="translate(414.704 525.304)" fill="#306ee3"/>
  </g>
</svg>
