<svg xmlns="http://www.w3.org/2000/svg" width="19.326" height="20.923" viewBox="0 0 19.326 20.923">
  <g id="Group_1961" data-name="Group 1961" transform="translate(16602.553 1553.28)">
    <circle id="Ellipse_112" data-name="Ellipse 112" cx="5.5" cy="5.5" r="5.5" transform="translate(-16595 -1544)" fill="#fff"/>
    <path id="Path_6791" data-name="Path 6791" d="M124.214,36.654a3.184,3.184,0,0,1-2.257-.933.456.456,0,0,1,.645-.645,2.386,2.386,0,0,0,.408.324,2.29,2.29,0,0,0,2.408,0,2.37,2.37,0,0,0,.408-.324.456.456,0,1,1,.645.645A3.183,3.183,0,0,1,124.214,36.654Zm12.313,5.7a6.163,6.163,0,0,1-6.157,6.157H118.057a.457.457,0,0,1-.456-.456v-3.42a6.626,6.626,0,0,1,4.324-6.2,5.477,5.477,0,1,1,6.907-2.039,6.234,6.234,0,0,1,1.539-.194,6.163,6.163,0,0,1,6.157,6.157Zm-12.313-4.332a4.56,4.56,0,1,0-4.56-4.56A4.565,4.565,0,0,0,124.214,38.024Zm2.937,9.577a6.145,6.145,0,0,1-1.952-8.578,5.861,5.861,0,0,0-.985-.087,5.706,5.706,0,0,0-5.7,5.7V47.6Zm8.464-5.245A5.245,5.245,0,1,0,130.37,47.6,5.251,5.251,0,0,0,135.615,42.357Zm-4.788-.456h-.912a.684.684,0,0,1,0-1.368h1.6a.456.456,0,0,0,0-.912h-.684v-.684a.456.456,0,0,0-.912,0v.684a1.6,1.6,0,1,0,0,3.192h.912a.684.684,0,0,1,0,1.368h-1.6a.456.456,0,1,0,0,.912h.684v.684a.456.456,0,1,0,.912,0v-.684a1.6,1.6,0,1,0,0-3.192Z" transform="translate(-16719.953 -1581.071)" stroke="#000" stroke-width="0.4"/>
    <circle id="Ellipse_113" data-name="Ellipse 113" cx="4.5" cy="4.5" r="4.5" transform="translate(-16594 -1543)" fill="#fff"/>
    <path id="Path_6792" data-name="Path 6792" d="M368.719,211.574h-1.906v-1.906a.621.621,0,0,0-1.242,0v1.906h-1.906a.621.621,0,1,0,0,1.242h1.906v1.906a.621.621,0,1,0,1.242,0v-1.906h1.906a.621.621,0,0,0,0-1.242Z" transform="translate(-16955.934 -1750.695)" stroke="#0f0101" stroke-width="0.3"/>
  </g>
</svg>
