<svg xmlns="http://www.w3.org/2000/svg" width="18.655" height="17.924" viewBox="0 0 18.655 17.924">
  <g id="Group_1920" data-name="Group 1920" transform="translate(16801.254 2311.671)">
    <path id="Path_6743" data-name="Path 6743" d="M193.891,73.2a3.788,3.788,0,1,0-3.721-3.787A3.758,3.758,0,0,0,193.891,73.2Zm0-6.628a2.841,2.841,0,1,1-2.774,2.841A2.81,2.81,0,0,1,193.891,66.567Z" transform="translate(-16987.26 -2376.991)" stroke="#000" stroke-width="0.6"/>
    <path id="Path_6744" data-name="Path 6744" d="M90.714,293.34a7.667,7.667,0,0,0-7.584,7.73.474.474,0,0,0,.947,0,6.638,6.638,0,1,1,13.273,0,.474.474,0,0,0,.947,0A7.667,7.667,0,0,0,90.714,293.34Z" transform="translate(-16884.084 -2595.591)" stroke="#000" stroke-width="0.6"/>
    <path id="Path_6745" data-name="Path 6745" d="M456.912,154.541h-2.038v-2.09a.474.474,0,0,0-.947,0v2.09h-2.039a.474.474,0,0,0,0,.947h2.039v2.09a.474.474,0,1,0,.947,0v-2.09h2.038a.474.474,0,0,0,0-.947Z" transform="translate(-17240.186 -2458.947)" stroke="#000" stroke-width="0.4"/>
  </g>
</svg>
