<svg xmlns="http://www.w3.org/2000/svg" width="20.175" height="18.933" viewBox="0 0 20.175 18.933">
  <g id="Group_1959" data-name="Group 1959" transform="translate(17029.777 1922.724)">
    <path id="Path_6752" data-name="Path 6752" d="M368.719,211.574h-1.906v-1.906a.621.621,0,0,0-1.242,0v1.906h-1.906a.621.621,0,1,0,0,1.242h1.906v1.906a.621.621,0,1,0,1.242,0v-1.906h1.906a.621.621,0,0,0,0-1.242Z" transform="translate(-17382.154 -2125.452)" stroke="#0f0101" stroke-width="0.3"/>
    <path id="Path_6753" data-name="Path 6753" d="M145.873,79.316a6.217,6.217,0,0,0-5.59-6.178v-.53A2.612,2.612,0,0,0,137.674,70h-9.068A2.612,2.612,0,0,0,126,72.609V86.024a2.612,2.612,0,0,0,2.609,2.609h9.068a2.612,2.612,0,0,0,2.609-2.609v-.53a6.217,6.217,0,0,0,5.59-6.178Zm-8.2,8.074h-9.068a1.368,1.368,0,0,1-1.366-1.366V72.609a1.368,1.368,0,0,1,1.366-1.366h9.068a1.368,1.368,0,0,1,1.366,1.366v.53a6.209,6.209,0,0,0,0,12.355v.53a1.368,1.368,0,0,1-1.366,1.366Zm1.989-3.108h0a4.966,4.966,0,1,1,0-9.933h0a4.966,4.966,0,0,1,0,9.933Z" transform="translate(-17155.625 -1992.574)" stroke="#0f0101" stroke-width="0.3"/>
    <path id="Path_6754" data-name="Path 6754" d="M199.107,154h-2.489a.621.621,0,1,0,0,1.242h2.489a.621.621,0,1,0,0-1.242Z" transform="translate(-17222.518 -2072.847)" stroke="#0f0101" stroke-width="0.3"/>
  </g>
</svg>
