<svg xmlns="http://www.w3.org/2000/svg" width="21.481" height="21.48" viewBox="0 0 21.481 21.48">
  <g id="Group_1850" data-name="Group 1850" transform="translate(17634.328 3227)">
    <path id="Path_6652" data-name="Path 6652" d="M99.716,17.113l-2.037-1.02c-.077-.208-.164-.42-.262-.628l.722-2.161a.441.441,0,0,0-.107-.456L95.6,10.42a.444.444,0,0,0-.456-.107l-2.161.722c-.208-.1-.416-.185-.628-.262L91.339,8.735a.438.438,0,0,0-.4-.248h-3.43a.438.438,0,0,0-.4.248l-1.02,2.037c-.208.077-.42.164-.628.262L83.3,10.312a.441.441,0,0,0-.456.107l-2.427,2.427a.444.444,0,0,0-.107.456l.722,2.161c-.094.2-.181.416-.262.628l-2.037,1.021a.444.444,0,0,0-.248.4v3.43a.444.444,0,0,0,.248.4l2.037,1.02c.077.211.164.42.262.628l-.722,2.161a.441.441,0,0,0,.107.456l2.427,2.427a.444.444,0,0,0,.456.107l2.161-.722c.2.094.416.181.628.262l1.02,2.037a.452.452,0,0,0,.4.248h3.43a.444.444,0,0,0,.4-.248l1.02-2.037c.211-.077.419-.164.628-.262l2.161.722a.441.441,0,0,0,.456-.107l2.427-2.427a.444.444,0,0,0,.107-.456l-.722-2.161c.094-.208.181-.416.262-.628l2.037-1.02a.452.452,0,0,0,.248-.4v-3.43A.444.444,0,0,0,99.716,17.113Zm-.648,3.554-1.95.973a.442.442,0,0,0-.222.252,7.472,7.472,0,0,1-.362.869.447.447,0,0,0-.02.336l.688,2.071L95.168,27.2,93.1,26.514a.433.433,0,0,0-.336.023,8.778,8.778,0,0,1-.869.363.432.432,0,0,0-.252.222l-.973,1.95H87.791l-.973-1.95a.453.453,0,0,0-.252-.222,7.8,7.8,0,0,1-.869-.363.447.447,0,0,0-.336-.023L83.29,27.2l-2.034-2.034.688-2.071a.433.433,0,0,0-.023-.336,8.78,8.78,0,0,1-.363-.869.432.432,0,0,0-.222-.252l-1.95-.973V17.79l1.95-.973a.453.453,0,0,0,.222-.252,7.8,7.8,0,0,1,.363-.869.447.447,0,0,0,.023-.336l-.688-2.071,2.034-2.034,2.071.691a.433.433,0,0,0,.336-.023,8.063,8.063,0,0,1,.869-.363.432.432,0,0,0,.252-.222l.973-1.95h2.876l.973,1.95a.453.453,0,0,0,.252.222,8.077,8.077,0,0,1,.869.363.447.447,0,0,0,.336.023l2.071-.691L97.2,13.29l-.688,2.071a.447.447,0,0,0,.02.336,8.684,8.684,0,0,1,.362.869.432.432,0,0,0,.222.252l1.95.973Z" transform="translate(-17712.813 -3235.487)"/>
    <path id="Path_6653" data-name="Path 6653" d="M197.856,121.59a6.266,6.266,0,1,0,6.266,6.266A6.273,6.273,0,0,0,197.856,121.59Zm-3.581,10.257a3.563,3.563,0,0,1,1.581-2.923,3.2,3.2,0,0,0,4.008,0,3.584,3.584,0,0,1,1.574,2.927,5.338,5.338,0,0,1-7.162,0Zm5.172-3.779a2.234,2.234,0,0,1-1.594.685,2.271,2.271,0,0,1-2.239-2.239,2.239,2.239,0,0,1,4.477,0A2.207,2.207,0,0,1,199.447,128.068Zm2.779,2.9a4.459,4.459,0,0,0-1.765-2.709,3.134,3.134,0,1,0-5.209,0,4.458,4.458,0,0,0-1.765,2.709,5.371,5.371,0,1,1,8.74,0Z" transform="translate(-17821.443 -3344.116)"/>
  </g>
</svg>
