<svg xmlns="http://www.w3.org/2000/svg" width="20.158" height="13.439" viewBox="0 0 20.158 13.439">
  <g id="Group_1848" data-name="Group 1848" transform="translate(16898.998 2502.185)">
    <path id="Path_6647" data-name="Path 6647" d="M328.886,182.367a.924.924,0,1,1-.924-.924.924.924,0,0,1,.924.924" transform="translate(-17216.818 -2680.604)"/>
    <path id="Path_6648" data-name="Path 6648" d="M217.45,232.763a.924.924,0,1,1-.924-.924.924.924,0,0,1,.924.924" transform="translate(-17109.561 -2729.11)"/>
    <path id="Path_6649" data-name="Path 6649" d="M172.086,337.483a.924.924,0,1,1-.924-.924.924.924,0,0,1,.924.924" transform="translate(-17065.898 -2829.904)"/>
    <path id="Path_6650" data-name="Path 6650" d="M468.326,337.483a.924.924,0,1,1-.924-.924.924.924,0,0,1,.924.924" transform="translate(-17351.029 -2829.904)"/>
    <path id="Path_6651" data-name="Path 6651" d="M91.279,100.8A10.082,10.082,0,0,0,81.2,110.879a10.252,10.252,0,0,0,.567,3.36h19.024a10.256,10.256,0,0,0,.567-3.36A10.082,10.082,0,0,0,91.279,100.8Zm-2.373,12.431a2.478,2.478,0,0,1,4.746,0Zm11.15,0H94.681a3.465,3.465,0,0,0-2.163-2.52l2.856-4.032-.819-.567-3.108,4.368h-.168a3.47,3.47,0,0,0-3.4,2.751H82.5a8.6,8.6,0,0,1-.315-2.352,9.092,9.092,0,0,1,18.184,0,8.6,8.6,0,0,1-.315,2.352Z" transform="translate(-16980.197 -2602.985)"/>
  </g>
</svg>
