<svg xmlns="http://www.w3.org/2000/svg" width="20.159" height="21.208" viewBox="0 0 20.159 21.208">
  <path id="Path_6646" data-name="Path 6646" d="M115.16,209.063h-3.754a.523.523,0,0,0-.414.2.538.538,0,0,0-.1.456l2.121,8.483a.544.544,0,0,0,.519.4h14.846a.544.544,0,0,0,.519-.4l2.121-8.483a.538.538,0,0,0-.1-.456.523.523,0,0,0-.414-.2h-3.754a6.724,6.724,0,0,0-3.436-2.768,4.773,4.773,0,1,0-4.687.011,6.818,6.818,0,0,0-3.477,2.757Zm14.655,1.06-1.856,7.423H113.941l-1.856-7.423Zm-12.577-7.953a3.711,3.711,0,1,1,3.711,3.711A3.715,3.715,0,0,1,117.238,202.17Zm3.712,4.772a5.754,5.754,0,0,1,4.125,1.707c.127.127.244.276.36.414h-8.971a5.84,5.84,0,0,1,4.486-2.121Z" transform="translate(-110.881 -197.398)"/>
</svg>
