<svg xmlns="http://www.w3.org/2000/svg" width="21.188" height="21.187" viewBox="0 0 21.188 21.187">
  <g id="Group_1918" data-name="Group 1918" transform="translate(16901.32 2516.118)">
    <path id="Path_6706" data-name="Path 6706" d="M144.991,67.077h-.147a9.264,9.264,0,1,0-9.162,7.89,9.409,9.409,0,0,0,1.374-.1v2.141a.621.621,0,0,0,.965.517L139.86,76.3h5.132a2.619,2.619,0,0,0,2.616-2.615V69.692a2.619,2.619,0,0,0-2.616-2.616Zm-9.309,6.65a8.016,8.016,0,1,1,7.906-6.65h-3.916a2.614,2.614,0,0,0-2.615,2.616v3.915a8.106,8.106,0,0,1-1.374.118Zm10.682-.045h0a1.374,1.374,0,0,1-1.373,1.374h-5.319a.622.622,0,0,0-.344.1l-1.03.686V69.693a1.373,1.373,0,0,1,1.374-1.375h5.319a1.375,1.375,0,0,1,1.373,1.375Zm-1.418-3.324h0a.62.62,0,0,1-.62.621h-3.989a.621.621,0,1,1,0-1.242h3.989a.621.621,0,0,1,.62.622Zm-1.994,2.659h0a.621.621,0,0,1-.621.621h-2a.621.621,0,1,1,0-1.241h2a.62.62,0,0,1,.621.621Zm-6.649-13.3V65.7a.621.621,0,0,1-.621.62h-3.988a.621.621,0,0,1,0-1.241h3.368V59.718a.621.621,0,0,1,1.242,0Z" transform="translate(-17027.74 -2572.558)" fill-rule="evenodd"/>
  </g>
</svg>
