<svg xmlns="http://www.w3.org/2000/svg" width="22.11" height="15.2" viewBox="0 0 22.11 15.2">
  <g id="noun-user-directory-598329" transform="translate(-69.996 -105)">
    <path id="Path_6746" data-name="Path 6746" d="M159.266,113.291a4.146,4.146,0,1,1,4.146-4.146A4.15,4.15,0,0,1,159.266,113.291Zm0-6.909a2.764,2.764,0,1,0,2.764,2.764A2.766,2.766,0,0,0,159.266,106.382Z" transform="translate(-81.763)"/>
    <path id="Path_6747" data-name="Path 6747" d="M159.266,113.291a4.146,4.146,0,1,1,4.146-4.146A4.15,4.15,0,0,1,159.266,113.291Zm0-6.909a2.764,2.764,0,1,0,2.764,2.764A2.766,2.766,0,0,0,159.266,106.382Z" transform="translate(-81.763)"/>
    <path id="Path_6748" data-name="Path 6748" d="M83.281,288.288H71.724a1.715,1.715,0,0,1-1.322-.619,1.755,1.755,0,0,1-.377-1.442,7.6,7.6,0,0,1,14.954,0,1.75,1.75,0,0,1-.377,1.442,1.718,1.718,0,0,1-1.321.618ZM77.5,281.379a6.212,6.212,0,0,0-6.118,5.1.374.374,0,0,0,.079.309.332.332,0,0,0,.26.122H83.28a.327.327,0,0,0,.26-.122.372.372,0,0,0,.079-.309,6.212,6.212,0,0,0-6.117-5.1Z" transform="translate(0 -168.088)"/>
    <path id="Path_6749" data-name="Path 6749" d="M444.409,281.382h-6.218a.691.691,0,0,1,0-1.382h6.218a.691.691,0,1,1,0,1.382Z" transform="translate(-352.994 -168.091)"/>
    <path id="Path_6750" data-name="Path 6750" d="M427.6,193.882h-6.909a.691.691,0,0,1,0-1.382H427.6a.691.691,0,0,1,0,1.382Z" transform="translate(-336.185 -84.045)"/>
    <path id="Path_6751" data-name="Path 6751" d="M494.836,368.882h-4.146a.691.691,0,0,1,0-1.382h4.146a.691.691,0,0,1,0,1.382Z" transform="translate(-403.422 -252.136)"/>
  </g>
</svg>
