<svg xmlns="http://www.w3.org/2000/svg" width="21.724" height="21.724" viewBox="0 0 21.724 21.724">
  <g id="Group_1919" data-name="Group 1919" transform="translate(16709.838 2461.022)">
    <path id="Path_6654" data-name="Path 6654" d="M78.205,25.144c-1.407-.5-2.386-2.535-2.386-4.052V18.408a4.015,4.015,0,0,1,2.013-3.142l-.447-.776a4.9,4.9,0,0,0-2.461,3.918v2.684a5.564,5.564,0,0,0,2.684,4.772v.288a54.415,54.415,0,0,0-6.064,2.621A3.329,3.329,0,0,0,70,31.382v4.026H70.9V31.382a2.435,2.435,0,0,1,1.143-1.865,55.645,55.645,0,0,1,6.174-2.639h0a.447.447,0,0,0,.289-.417v-.895a.448.448,0,0,0-.3-.422Z" transform="translate(-16779.74 -2474.806)" stroke="#000" stroke-width="0.2"/>
    <path id="Path_6655" data-name="Path 6655" d="M368.627,306.538a54.425,54.425,0,0,0-6.064-2.621v-.586h-.895v.895a.447.447,0,0,0,.289.419,57.389,57.389,0,0,1,6.174,2.639h0a2.437,2.437,0,0,1,1.142,1.863v4.026h.895v-4.026a3.329,3.329,0,0,0-1.541-2.609Z" transform="translate(-17060.221 -2752.572)" stroke="#000" stroke-width="0.2"/>
    <path id="Path_6656" data-name="Path 6656" d="M163.33,455h.895v4.026h-.895Z" transform="translate(-16869.488 -2898.425)"/>
    <path id="Path_6657" data-name="Path 6657" d="M466.67,455h.895v4.026h-.895Z" transform="translate(-17161.195 -2898.425)"/>
    <path id="Path_6661" data-name="Path 6661" d="M314.514,0h-9.842a1.342,1.342,0,0,0-1.342,1.342V8.5a1.342,1.342,0,0,0,1.342,1.342h2.237v1.342h0a.447.447,0,0,0,.764.316l1.658-1.658h5.183A1.342,1.342,0,0,0,315.856,8.5V1.342A1.342,1.342,0,0,0,314.514,0Zm.447,8.5a.447.447,0,0,1-.447.447h-5.368a.448.448,0,0,0-.316.131L307.8,10.1v-.71a.447.447,0,0,0-.447-.447h-2.684a.447.447,0,0,1-.447-.447V1.342a.447.447,0,0,1,.447-.447h9.842a.447.447,0,0,1,.447.447Z" transform="translate(-17004.119 -2460.872)" stroke="#000" stroke-width="0.3"/>
  </g>
</svg>
