<svg xmlns="http://www.w3.org/2000/svg" width="18.137" height="18.861" viewBox="0 0 18.137 18.861">
  <path id="noun-user-icon-2014807" d="M109.4,27.853a5.034,5.034,0,1,0-5.164-8.628,4.936,4.936,0,0,0-2.141,3.212,5.02,5.02,0,0,0,.756,3.779,5.627,5.627,0,0,0,1.826,1.637A9.012,9.012,0,0,0,98,36.606a.6.6,0,0,0,.63.63h16.877a.6.6,0,0,0,.63-.63A9,9,0,0,0,109.4,27.853ZM103.92,25.46a3.724,3.724,0,0,1-.567-2.834,3.569,3.569,0,0,1,1.637-2.393,3.515,3.515,0,0,1,2.078-.63,3.066,3.066,0,0,1,.756.063,3.792,3.792,0,0,1,0,7.431,2.821,2.821,0,0,1-1.448,0A3.692,3.692,0,0,1,103.92,25.46ZM99.26,35.977a7.837,7.837,0,0,1,15.618,0Z" transform="translate(-98 -18.375)"/>
</svg>
