<svg xmlns="http://www.w3.org/2000/svg" width="168.989" height="115.693" viewBox="0 0 168.989 115.693">
  <g id="birthday-bg" transform="translate(-1319.15 -551.162)">
    <g id="Group" transform="matrix(0.485, -0.875, 0.875, 0.485, 1402.321, 642.095)" opacity="0.9">
      <path id="Fill_25" data-name="Fill 25" d="M27.428,9.579s-.581,1.442-1.562,3.724c-.755,1.759-1.754,4.015-2.907,6.5-.691,1.478-1.442,3.036-2.222,4.617-.724,1.451-1.487,2.924-2.267,4.363C13.544,37.928,7.8,45.912,4.682,40.978,3.326,38.829,2.425,34.341,1.823,29.09c-.205-1.739-.367-3.559-.506-5.4-.156-2.155-.282-4.342-.373-6.477C.856,15.309.8,13.462.749,11.715c-.072-2.956-.1-5.59-.1-7.61V4.1C.647,1.589.674.039.674.039l26.754,9.54" transform="translate(13.007 33.22)" fill="#f2699f"/>
      <path id="Fill_26" data-name="Fill 26" d="M5.852,4.548A3.7,3.7,0,0,1,1.86,8.525,4.325,4.325,0,0,1,.443,8.2C.372,5.081.354,2.3.355.163V.154A4,4,0,0,1,1.4.081,4.836,4.836,0,0,1,5.852,4.548" transform="translate(13.138 35.632)" fill="#ffb8d5"/>
      <path id="Fill_27" data-name="Fill 27" d="M8.1,4.678A3.576,3.576,0,0,1,4.393,8.672,4.685,4.685,0,0,1,.228,4.222,3.576,3.576,0,0,1,3.937.228,4.684,4.684,0,0,1,8.1,4.678" transform="translate(21.337 42.12)" fill="#ffb8d5"/>
      <path id="Fill_29" data-name="Fill 29" d="M5.852,4.548c.126,2.338-1.358,4.13-3.307,4.017a3.507,3.507,0,0,1-2.1-.91C.288,5.377.156,3.066.056.81A2.84,2.84,0,0,1,2.089.121c1.95.113,3.637,2.1,3.763,4.427" transform="translate(13.854 48.901)" fill="#ffb8d5"/>
      <path id="Fill_32" data-name="Fill 32" d="M6.306,36.439a2.816,2.816,0,0,1-2.18-1.506C2.9,33.007,1.932,29,1.244,23.032l.11.243c.581,1.293,1.66,3.7,3.959,4.494a4.254,4.254,0,0,0,3.126,1.752,3.428,3.428,0,0,0,3.606-3.778,4.383,4.383,0,0,0-.129-.841,29.289,29.289,0,0,0,1.95-3.588,4.251,4.251,0,0,0,2.972,1.556,3.538,3.538,0,0,0,1.212-.14,67.67,67.67,0,0,1-6.143,9.67C9.689,35.167,7.805,36.526,6.306,36.439ZM20.34,18.365v0a4.466,4.466,0,0,0-3.888-3.486c2.376-6.717,4.06-13.618,4.076-13.687L27.1,3.517s-.015.039-.041.1c-.468,1.132-.985,2.351-1.537,3.625a4.217,4.217,0,0,0-2.862-1.433,3.428,3.428,0,0,0-3.606,3.777,4.549,4.549,0,0,0,3.53,4.157c-.694,1.471-1.45,3.024-2.244,4.617Z" transform="translate(13.333 39.251)" fill="#f24c85"/>
      <path id="Fill_33" data-name="Fill 33" d="M3.251,5A4.194,4.194,0,0,1,.176,3.252a4.739,4.739,0,0,0,1.3.257,6.541,6.541,0,0,0,2.268-.3A6.333,6.333,0,0,0,6.667.386a4.432,4.432,0,0,1,.127.839A3.4,3.4,0,0,1,3.251,5" transform="translate(19.135 63.636)" fill="#ff85b2"/>
      <path id="Fill_34" data-name="Fill 34" d="M3.394,8.614A4.252,4.252,0,0,1,.377,6.977C1.3,4.9,2.183,2.546,2.984.173A4.6,4.6,0,0,1,6.936,3.848C6.2,5.383,5.419,6.941,4.622,8.464a3.448,3.448,0,0,1-1.228.15" transform="translate(27.547 53.301)" fill="#ff85b2"/>
      <path id="Fill_35" data-name="Fill 35" d="M3.839,8.64h0a4.763,4.763,0,0,1-3.61-4.4A3.574,3.574,0,0,1,3.9.226,4.233,4.233,0,0,1,6.822,1.739C6.047,3.607,5.022,6,3.839,8.64" transform="translate(32.65 43.977)" fill="#ff85b2"/>
      <path id="Fill_36" data-name="Fill 36" d="M27.468,10.61c-.285,1.269-6.654.057-14.227-2.706S-.237,1.873.048.6,6.7.547,14.275,3.31s13.479,6.031,13.193,7.3" transform="translate(14.067 32.079)" fill="#932e57"/>
      <path id="Fill_37" data-name="Fill 37" d="M1.1,19.3a23.1,23.1,0,0,1,2.881-9.027c1.474-2.526,3.666-4.57,6.843-3.739A3.4,3.4,0,0,1,13.6,9.521c.113,1.546-.995,2.518-2.414,1.664-2.81-1.692-2.056-5.532-.4-7.269,2.384-2.5,6.014-2.649,9.268-1.1.259.124.374-.283.155-.439a7.772,7.772,0,0,0-9.87.683C8.222,5.1,7.443,9.2,10.338,11.6c2.689,2.229,5.145-.734,3.619-3.628C12.4,5.008,8.092,5.1,6.1,6.686,2.6,9.48,1.368,14.668,1.042,19.292L1.1,19.3" transform="translate(33.466 17.57)" fill="#94d0da"/>
      <path id="Fill_38" data-name="Fill 38" d="M.534,9.129C.4,5.968,1.188,2.516,4.281,1.664c2.232-.615,4.8,1.084,6.462,2.807,1.591,1.646,2.984,3.806,2.328,6.036a3.52,3.52,0,0,1-1.606,2.3c-1.435.607-2.995-1.318-3.73-2.531a5.258,5.258,0,0,1,.429-6.542c1.2-1.391,3.272-2.741,5.265-2.163,3.952,1.146,6.6,5.18,7.4,9.194.791,3.992.16,7.845-.182,11.709-.033.368.462.562.548.19a27.2,27.2,0,0,0,.1-13.437,12.54,12.54,0,0,0-3.8-6.118C15.633,1.521,13.272.246,11.068.89a7.253,7.253,0,0,0-4.827,4.7c-.753,2.5.624,5.478,2.677,7.183,2.079,1.726,3.895.618,4.7-1.526.88-2.333-.06-4.515-1.71-6.493C10.069,2.545,7.067.467,4.379,1.039A5.189,5.189,0,0,0,1.115,3.551C.171,5.189.369,7.186.515,9.128H.534" transform="translate(0.521 9.65)" fill="#ffd100"/>
      <path id="Fill_39" data-name="Fill 39" d="M3.413,30.259C5.364,25.865,5.69,20.323,5.3,15.337,4.9,10.252,3.627,4.666.586.185A.3.3,0,1,0,.061.472,40.168,40.168,0,0,1,4.584,15.5c.43,5.133-.344,9.849-1.225,14.732l.055.026" transform="translate(21.437 2.444)" fill="#f2699f"/>
      <path id="Fill_40" data-name="Fill 40" d="M1.813,32.571c.622-3.686,1-7.438,1.7-11.1C4.293,17.4,5.295,13.1,7.574,9.775c1.88-2.74,6.413-4.26,9.653-2.047,3.786,2.587.063,7.619-3.341,6.671-2.146-.6-4.318-2.8-5.393-4.811C6.972,6.741,7.358,3.633,8.338.952,8.465.605,7.967.26,7.812.611A10.687,10.687,0,0,0,7.159,8.4a11.3,11.3,0,0,0,4.178,5.46c1.851,1.346,3.909,1.981,5.749.826A5.417,5.417,0,0,0,19.623,10.6,4.578,4.578,0,0,0,16.916,6.75a8.049,8.049,0,0,0-5.607-.42C6.954,7.5,5.28,12.135,4.136,16.293A79.729,79.729,0,0,0,1.759,32.561l.055.011" transform="translate(28.12 1.629)" fill="#f2699f"/>
      <path id="Fill_45" data-name="Fill 45" d="M1.033.427S.388,11.32.672,11.768s.753.707.906-1.262.536-5.725.616-6.638S2.8-1.063,1.033.427" transform="translate(14.262 35.697)" fill="#fff"/>
      <path id="Fill_46" data-name="Fill 46" d="M.475.043S.1,0,.1.56A16.353,16.353,0,0,0,.261,3.491c.162.217.812.241.814-.177S1.331.652,1.038.3.475.043.475.043" transform="translate(14.914 47.76)" fill="#fff"/>
    </g>
    <g id="Group_2" data-name="Group 2" transform="translate(1424.111 573.653) rotate(-7)" opacity="0.9">
      <path id="Fill_4" data-name="Fill 4" d="M22.716,25.391c-.148-.029-.306-.059-.47-.1a10.593,10.593,0,0,1-1.86-.711c-.106-.052-.218-.108-.329-.165-.414-.206-.85-.44-1.3-.7-.293-.164-.59-.341-.893-.528l-.027-.018c-.308-.187-.617-.383-.936-.588l-.511-.336c-.473-.316-.964-.647-1.459-.991-.155-.112-.309-.223-.469-.335s-.352-.247-.523-.372-.368-.265-.549-.4l-.005,0c-.8-.581-1.6-1.189-2.405-1.8-.64-.492-1.28-.989-1.9-1.49-1.195-.951-2.348-1.9-3.405-2.774-.684-.561-1.319-1.1-1.9-1.6C1.6,10.623.159,9.327.159,9.327l5.4-2.869L8.271,5.018l3.923-2.081,1.7-.9.01-.009.714-.376L17.25.259c.06.119.327.652.731,1.491.606,1.252,1.5,3.182,2.466,5.41,1.008,2.31,2.075,4.953,2.949,7.493a45.4,45.4,0,0,1,1.348,4.66c.844,3.783.606,6.5-2.028,6.08" transform="translate(26.413 22.21)" fill="#94d0da"/>
      <path id="Fill_5" data-name="Fill 5" d="M4.96.074A31.654,31.654,0,0,1,2.154,8.758C1.425,8.217.744,7.7.123,7.219A29.858,29.858,0,0,0,2.051,1.451L4.96.074" transform="translate(28.968 26.611)" fill="#97f5ff"/>
      <path id="Fill_6" data-name="Fill 6" d="M3.611,1.347A32.5,32.5,0,0,1,.254,14.935c.665.491,1.348.975,2.031,1.459A33.729,33.729,0,0,0,6.2.093L3.611,1.347" transform="translate(35.112 23.431)" fill="#97f5ff"/>
      <path id="Fill_9" data-name="Fill 9" d="M7,18.647a3.09,3.09,0,0,1-.454-.042c-.144-.03-.3-.06-.46-.1a10.1,10.1,0,0,1-1.817-.722c-.1-.053-.213-.11-.322-.167-.4-.21-.83-.447-1.272-.714-.286-.166-.577-.346-.873-.536l-.026-.019c-.3-.19-.6-.389-.915-.6l-.5-.341-.095-.066.093.064q.351-.684.663-1.371h.008c1.4.021,2.79-.382,3.343-1.879.349-.942-.113-2.919-.968-5.292a41.129,41.129,0,0,0,.914-6.8C5.3,2.412,6.343,5.1,7.2,7.679c.3.914.575,1.816.814,2.687C7.773,9.5,7.5,8.594,7.2,7.678a34.351,34.351,0,0,1-3.254,9.931,10.8,10.8,0,0,0,2.14.89,34.745,34.745,0,0,0,2.435-6.081h0a17.09,17.09,0,0,1,.426,3.19c.032,1.873-.51,3.06-1.949,3.038" transform="translate(42.646 28.997)" fill="#7ac0cd"/>
      <path id="Fill_13" data-name="Fill 13" d="M3.458,9.868c-1.1-2.333-2.34-4.7-3.4-6.663C.074,2.61.08,2.04.076,1.5L.1,1.484,2.9.043c.064.123.347.674.775,1.541v0a40.147,40.147,0,0,1-.215,8.28" transform="translate(40.035 21.323)" fill="#7ac0cd"/>
      <path id="Fill_16" data-name="Fill 16" d="M2.268,20.757h0l-.093-.063c-.327-.222-.579-.4-.82-.563-.171-.119-.343-.241-.517-.364l-.1-.069-.182-.13L.331,19.4c.064-.128.124-.25.184-.375a10.273,10.273,0,0,0,2.426.367c-.23.492-.45.937-.672,1.36Zm3.095-8.482v0C4.92,11.07,4.344,9.683,3.65,8.15A41.365,41.365,0,0,0,3.845.058l.064.135,0,.006.079.168c.378.806.722,1.558,1.055,2.3.407.908.826,1.867,1.246,2.852a39.825,39.825,0,0,1-.927,6.751Z" transform="translate(40.072 23.505)" fill="#7de2f0"/>
      <path id="Fill_17" data-name="Fill 17" d="M2.446,10.944a11.848,11.848,0,0,1-2.275-.9A33.292,33.292,0,0,0,3.641.055c.318.922.61,1.83.864,2.707.206.713.387,1.4.536,2.065a33.906,33.906,0,0,1-2.6,6.118" transform="translate(46.496 36.69)" fill="#7de2f0"/>
      <path id="Fill_18" data-name="Fill 18" d="M17.319.421c.491.695-2.941,3.326-7.666,5.876S.7,10.352.209,9.658,3.15,6.332,7.875,3.782,16.828-.273,17.319.421" transform="translate(26.395 21.119)" fill="#459ca0"/>
      <path id="Fill_19" data-name="Fill 19" d="M.385,14.159C.891,10.5,2.214,5.516,7.424,5.709c2.04.075,4.273.974,5.248,2.687a2.56,2.56,0,0,1-1.779,3.849c-1.93.421-4.129-.779-5.455-1.984a4.081,4.081,0,0,1-.94-5.1C6.384,1.707,11.407.414,15.462,1.034A22.856,22.856,0,0,1,28.331,8.066c.136.146.408-.039.289-.2A20.641,20.641,0,0,0,15.279.321C10.751-.291,4.681,1.493,3.4,5.8a4.829,4.829,0,0,0,1.868,5.238c1.519,1.222,3.773,2.281,5.826,1.818a3.192,3.192,0,0,0,2.6-3.629C13.33,7.455,11.581,6.12,9.746,5.543A7.086,7.086,0,0,0,2.8,6.81a8.569,8.569,0,0,0-2.5,7.339c.005.035.071.053.078.01" transform="translate(1.519 16.383)" fill="#ffd100"/>
      <path id="Fill_20" data-name="Fill 20" d="M1.458,18.553a14.4,14.4,0,0,1-.6-7.531A8.467,8.467,0,0,1,2.046,7.661c.75-1.093,2.487-1.993,3.833-1.1.66.435,1.3,1.352.935,2.086A1.654,1.654,0,0,1,4.842,9.2,3.735,3.735,0,0,1,2.189,6.418C1.809,4.2,3.4,2.147,4.466.335a.191.191,0,0,0-.3-.216c-1.491,1.6-2.934,3.913-2.7,6.131C1.673,8.2,3.985,10.5,6.274,9.847c2.463-.705,1.046-3.769-.988-4.178C2.62,5.133,1.132,7.7.638,9.634a13.69,13.69,0,0,0,.777,8.929l.044-.01" transform="translate(32.298 3.756)" fill="#ffd100"/>
      <path id="Fill_21" data-name="Fill 21" d="M.115,1.579A13.264,13.264,0,0,1,4.944.722a17.19,17.19,0,0,1,4.958.7,41.115,41.115,0,0,1,11.05,5.416c.15.1.324-.1.192-.212A32.707,32.707,0,0,0,9.487.684,16.009,16.009,0,0,0,4.35.1C2.706.185,1.1.394.041,1.5c-.041.043.012.109.074.081" transform="translate(7.663 13.203)" fill="#94d0da"/>
      <path id="Fill_22" data-name="Fill 22" d="M3.906,10.951A40.568,40.568,0,0,1,1.528,5.884,24.9,24.9,0,0,1,.559.182C.531-.053.117-.053.087.175A12.948,12.948,0,0,0,1,5.988c.578,1.62,1.324,3.709,2.877,4.977l.032-.014" transform="translate(24.894 5.827)" fill="#94d0da"/>
      <path id="Fill_23" data-name="Fill 23" d="M2.677.734,3.936.11c.145-.065.319.046.293.186l-.3,1.23a.164.164,0,0,0,.06.154l.957.808a.165.165,0,0,1-.106.293l-1.3.144a.193.193,0,0,0-.149.092l-.6,1.218c-.07.227-.248.194-.324.064L1.861,2.995a.209.209,0,0,0-.152-.1L.169,2.75C.005,2.726.015,2.607.132,2.509l1.084-.87a.155.155,0,0,0,.055-.152L.87.215c-.03-.141.139-.246.287-.177L2.491.731a.229.229,0,0,0,.186,0" transform="translate(0.223 13.092)" fill="#ffd100"/>
      <path id="Fill_24" data-name="Fill 24" d="M3.47,1.615,4.861,2a.17.17,0,0,1,.05.313l-1.23.632a.166.166,0,0,0-.085.142l0,1.156a.2.2,0,0,1-.316.13L2.251,3.637a.218.218,0,0,0-.18-.033L.648,4.043C.412,4.15.316,4.013.37,3.878l.661-1.265A.164.164,0,0,0,1,2.45L.058,1.365c-.1-.12.011-.194.173-.185l1.474.108a.2.2,0,0,0,.164-.067L2.643.109a.208.208,0,0,1,.347.064l.354,1.32a.192.192,0,0,0,.127.121" transform="translate(23.561 0.353)" fill="#ffd100"/>
      <path id="Fill_43" data-name="Fill 43" d="M.1.426S3.943,4,4.623,4.355,5.266,3.9,3.5,2.227-.48-.685.1.426" transform="translate(27.802 30.956)" fill="#fff"/>
      <path id="Fill_44" data-name="Fill 44" d="M.073.072A.515.515,0,0,0,.248.765c.411.325.765.443.95.239S1.06.421.878.212.126-.056.073.072" transform="translate(34.095 36.504)" fill="#fff"/>
      <path id="Fill_47" data-name="Fill 47" d="M8.72,2.473S5.872-1.043.006.381L1.079,3.072s4.568-.958,6.409.312L8.72,2.473" transform="translate(20.287 26.481)" fill="#ffd100"/>
      <path id="Fill_48" data-name="Fill 48" d="M.066,3.758S-.257-.442,4.62.107l.364,1.374S3.49,2.834,2.091,4.394L.066,3.758" transform="translate(39.924 14.777)" fill="#f2699f"/>
      <path id="Fill_7" data-name="Fill 7" d="M6.293,5.519A37.165,37.165,0,0,1,2.268,20.757C1.641,20.336.991,19.88.331,19.4A37.786,37.786,0,0,0,3.844.058c.6,1.262,1.489,3.211,2.448,5.462" transform="translate(40.072 23.505)" fill="#97f5ff"/>
      <path id="Fill_8" data-name="Fill 8" d="M5.041,4.826a33.877,33.877,0,0,1-2.6,6.118,11.848,11.848,0,0,1-2.275-.9A33.292,33.292,0,0,0,3.641.055a45.888,45.888,0,0,1,1.4,4.771" transform="translate(46.496 36.69)" fill="#97f5ff"/>
    </g>
    <path id="Fill_42" data-name="Fill 42" d="M7.9,2.863l3.587-1.226a.516.516,0,0,1,.625.682L10.556,5.76a.511.511,0,0,0,.054.476l1.908,2.808a.516.516,0,0,1-.455.8L8.674,9.655a.514.514,0,0,0-.438.2L5.951,13.123c-.323.631-.754.449-.863.036l-.7-4.09a.516.516,0,0,0-.324-.354L.258,7.556c-.4-.145-.3-.487.061-.717l3.3-2.027a.516.516,0,0,0,.236-.418L3.654.5a.515.515,0,0,1,.84-.383l2.938,2.65a.519.519,0,0,0,.47.1" transform="translate(1367.656 582.734)" fill="#1875ba"/>
    <path id="Fill_57" data-name="Fill 57" d="M6.434,0,0,7.939,8.382,13.12l4.488-7.561L6.434,0" transform="translate(1340.228 581.646)" fill="#f2699f"/>
    <path id="Fill_57_Copy" data-name="Fill 57 Copy" d="M6.434,0,0,7.939,8.382,13.12l4.488-7.561L6.434,0" transform="translate(1410.152 551.162)" fill="#f2699f"/>
    <path id="Fill_58" data-name="Fill 58" d="M6.434,0,0,7.939l8.382,5.182L12.869,5.56,6.434,0" transform="translate(1367.686 558.783)" fill="#ffd100"/>
    <path id="Fill_64" data-name="Fill 64" d="M4.939,0,0,7.183l4.939,4.489,9.427-2.244L4.939,0" transform="translate(1365.355 632.814)" fill="#1875ba"/>
    <path id="Fill_65" data-name="Fill 65" d="M4.938,0,0,7.183l4.938,4.489,9.427-2.245L4.938,0" transform="translate(1319.15 636.08)" fill="#ffd100"/>
    <path id="Fill_72" data-name="Fill 72" d="M6.868,2.069,10.139.151a.515.515,0,0,1,.747.543l-.839,3.684a.513.513,0,0,0,.148.456L12.625,7.2a.514.514,0,0,1-.285.877l-3.36.489a.512.512,0,0,0-.388.282L7,12.514c-.191.682-.649.589-.838.206l-1.5-3.867a.513.513,0,0,0-.388-.282L.316,8.2c-.422-.062-.39-.418-.085-.715L3.062,4.835a.515.515,0,0,0,.147-.456L2.233.6A.516.516,0,0,1,2.98.06l3.409,2.01a.52.52,0,0,0,.48,0" transform="translate(1358.939 613.218)" fill="#ffd100"/>
    <path id="Fill_72_Copy" data-name="Fill 72 Copy" d="M6.868,2.069,10.139.151a.515.515,0,0,1,.747.543l-.839,3.684a.513.513,0,0,0,.148.456L12.625,7.2a.514.514,0,0,1-.285.877l-3.36.489a.512.512,0,0,0-.388.282L7,12.514c-.191.682-.649.589-.838.206l-1.5-3.867a.513.513,0,0,0-.388-.282L.316,8.2c-.422-.062-.39-.418-.085-.715L3.062,4.835a.515.515,0,0,0,.147-.456L2.233.6A.516.516,0,0,1,2.98.06l3.409,2.01a.52.52,0,0,0,.48,0" transform="translate(1336.474 551.162)" fill="#ffd100"/>
    <path id="Fill_84" data-name="Fill 84" d="M.78,6.662c2.666-2.406,5.156-1.692,7.4.949,1.082,1.272,3.81,5.466,1.257,6.535-1.408.59-3.3-.482-3.958-1.7a6.244,6.244,0,0,1-.165-4.529C6.435,3.971,9.279,2.251,13.089,1.6c.707-.122.57-1.1,0-1.3C6.033-2.114-.926,10.735,5.258,15.1c2.078,1.465,6.055,1.486,6.815-1.44.747-2.88-1.595-6.3-3.611-8.1C5.944,3.308,1.812,2.467.053,6.1a.465.465,0,0,0,.727.561" transform="translate(1329.063 606.686)" fill="#e56464"/>
    <path id="Fill_88" data-name="Fill 88" d="M1.287,11.721c-.075-2.933,4.986-2.826,6.6-1.449A5.131,5.131,0,0,1,9.3,14.352c-.071,1.56-.733,2.954-1.564.831-1.45-3.7-.817-9.086,4.2-8.927A5.212,5.212,0,0,1,16.07,8.412c.735,1.075,1.85,5.215-.723,3.657C11.734,9.884,15.566,2.437,18.1.93a.5.5,0,0,0-.384-.913c-6.348,1.567-8.015,15.97.231,13.88a.9.9,0,0,0,.641-.642c.569-3.618-.766-7.226-4.47-8.458A6.8,6.8,0,0,0,5.831,7.942,9.033,9.033,0,0,0,5.4,13.856c.322,1.481,1.118,4.66,3.119,4.729,4.12.143,2.458-7.816.7-9.465C7.51,7.525,4.624,7.334,2.5,8.087.886,8.66-.735,10.212.355,11.972a.5.5,0,0,0,.932-.251" transform="translate(1389.613 583.823)" fill="#f2699f"/>
  </g>
</svg>
