<svg xmlns="http://www.w3.org/2000/svg" width="36.281" height="36" viewBox="0 0 36.281 36">
  <g id="Announcements" transform="translate(0 -0.1)">
    <path id="Shape_74_" d="M31.35,2.931v29.25a2.521,2.521,0,0,1-2.531,2.531H27.694a2.521,2.521,0,0,1-2.531-2.531v.562s-10.406-5.906-15.75-6.469H4.631A2.521,2.521,0,0,1,2.1,23.744V11.369A2.521,2.521,0,0,1,4.631,8.837H9.412a2.148,2.148,0,0,1,1.406.562c5.062-.844,14.344-6.469,14.344-6.469A2.521,2.521,0,0,1,27.694.4h1.125A2.361,2.361,0,0,1,31.35,2.931Z" transform="translate(3.806 0.544)" fill="#aecdff"/>
    <path id="Shape_75_" d="M32.906.1H31.781a3.341,3.341,0,0,0-3.375,2.812c-1.969,1.125-9.281,5.344-13.5,6.187a4,4,0,0,0-1.687-.562H8.437a3.249,3.249,0,0,0-3.375,3.375v.281H4.781C2.25,12.194,0,14.725,0,18.1s1.969,5.906,4.781,5.906h.281v.281a3.06,3.06,0,0,0,2.531,3.094V33.85a2.218,2.218,0,0,0,2.25,2.25h2.531a2.218,2.218,0,0,0,2.25-2.25V27.381l.281.281c4.5.563,12.375,5.344,13.781,6.187a3.29,3.29,0,0,0,3.094,2.25h1.125a3.42,3.42,0,0,0,3.375-3.375V3.475A3.42,3.42,0,0,0,32.906.1ZM4.781,22.037c-1.406,0-2.812-1.969-2.812-3.937s1.125-3.937,2.812-3.937h.281l-.281,7.875Zm11.531-11.25A45.608,45.608,0,0,0,28.125,5.162V31.6c-2.531-1.406-8.156-4.781-12.094-5.625a4,4,0,0,0,.562-1.687V11.912C16.875,11.631,16.594,11.069,16.312,10.787Zm-9.281,13.5V11.912a1.507,1.507,0,0,1,1.406-1.406h4.781a1.507,1.507,0,0,1,1.406,1.406V24.006A1.264,1.264,0,0,1,13.5,25.694H8.437A1.329,1.329,0,0,1,7.031,24.287Zm5.344,9.562h0l-2.812.281a.275.275,0,0,1-.281-.281V27.944a.275.275,0,0,1,.281-.281h2.531a.275.275,0,0,1,.281.281Zm21.937-1.125a1.507,1.507,0,0,1-1.406,1.406H31.781a1.329,1.329,0,0,1-1.406-1.406V3.475a1.507,1.507,0,0,1,1.406-1.406h1.125a1.507,1.507,0,0,1,1.406,1.406Z" transform="translate(0 0)" fill="#3a4653"/>
  </g>
</svg>
