<svg xmlns="http://www.w3.org/2000/svg" width="24.8" height="22.087" viewBox="0 0 24.8 22.087">
  <path id="Download_Payslip" data-name="Download Payslip" d="M44.75,34.81V34.8a.18.18,0,0,0-.019-.076.033.033,0,0,0-.01-.019.286.286,0,0,0-.038-.076h0a.29.29,0,0,0-.048-.067c0-.01-.01-.01-.01-.019l-.057-.057h-.01c-.01-.01-.029-.019-.038-.029a.033.033,0,0,1-.019-.01c-.01,0-.01-.01-.019-.01a.449.449,0,0,0-.153-.038h-.1a.224.224,0,0,0-.076.019c-.01,0-.019.01-.029.01a.286.286,0,0,0-.076.038h0l-.305.181-1.278.744-.61-.477-.534-.41a.449.449,0,0,0-.305-.1h-.067a.447.447,0,0,0-.334.143.524.524,0,0,0-.067.086l-1.135.753L38.2,34.5a.458.458,0,0,0-.553,0l-1.24.877-.944-.753-.134-.1c-.01-.01-.029-.019-.038-.029s-.019-.01-.029-.019h-.01a.5.5,0,0,0-.286-.057h-.019c-.019,0-.038.01-.057.01s-.019.01-.038.01-.029.01-.038.01-.01.01-.019.01-.029.019-.048.029l-.114.086-1.116.792-.982-.839a.48.48,0,0,0-.448-.1h-.01a.583.583,0,0,0-.134.067l-.792.591-.362.277-1.078-.839h0l-.019-.019a.482.482,0,0,0-.668.086.49.49,0,0,0-.076.439v.038c-.057.782-.505,6.99-1.488,12.379H20.431a.507.507,0,0,0-.372.172.523.523,0,0,0-.1.391c1.125,5.779,2.441,8.478,4.168,8.478h14.9c1.793,0,3.138-2.88,4.253-9.06.83-4.606,1.278-9.775,1.44-11.73l.029-.353v-.486A.086.086,0,0,0,44.75,34.81ZM39.018,55.533h0c-.525,0-1.888-.753-3.223-7.715a.471.471,0,0,0-.467-.391H28.394c.83-4.587,1.268-9.7,1.421-11.616l.648.505a.553.553,0,0,0,.286.1.45.45,0,0,0,.286-.1l1.135-.858.448.381.534.458a.473.473,0,0,0,.582.029l1.24-.877.286.229.782.629a.465.465,0,0,0,.21.1h0c.019,0,.048.01.067.01a.5.5,0,0,0,.286-.086l1.259-.887,1.2.877a.473.473,0,0,0,.544.01l.048-.029,1.3-.858,1.125.877.01.01c.019.01.029.019.048.029s.019.01.029.01.029.01.038.019.019.01.029.01.029.01.038.01H42.4a.057.057,0,0,0,.038-.01.035.035,0,0,0,.029-.01c.01,0,.029-.01.038-.01s.019-.01.029-.01.019-.01.029-.019.019-.01.029-.01l.486-.286.62-.362c-.172,2-.61,7.057-1.421,11.549C40.992,54.723,39.571,55.533,39.018,55.533Zm-14.9,0c-.505,0-1.8-.715-3.109-7.153H34.946c.715,3.6,1.516,5.951,2.451,7.153H24.122ZM42.27,39.226a.472.472,0,0,1-.477.477H31.017a.477.477,0,0,1,0-.954H41.793A.472.472,0,0,1,42.27,39.226Zm-.858,2.67a.472.472,0,0,1-.477.477H30.063a.477.477,0,0,1,0-.954H40.935A.472.472,0,0,1,41.412,41.9Z" transform="translate(-19.95 -34.4)" fill="#6083f4"/>
</svg>
