<svg xmlns="http://www.w3.org/2000/svg" width="37.025" height="42.721" viewBox="0 0 37.025 42.721">
  <g id="extention-list" transform="translate(-323.487 -987.639)">
    <rect id="Rectangle_2789" data-name="Rectangle 2789" width="11" height="35" transform="translate(328 988)" fill="#aecdff"/>
    <rect id="Rectangle_2790" data-name="Rectangle 2790" width="11" height="4" transform="translate(344 998)" fill="#3b86ff"/>
    <g id="Group_1254" data-name="Group 1254" transform="translate(317.487 985.639)">
      <g id="Group_1253" data-name="Group 1253" transform="translate(6 2)">
        <path id="Path_2462" data-name="Path 2462" d="M42.313,7.7H21.664V2.712A.712.712,0,0,0,20.952,2H10.984a.712.712,0,0,0-.712.712V7.7H6.712A.712.712,0,0,0,6,8.408v35.6a.712.712,0,0,0,.712.712h35.6a.712.712,0,0,0,.712-.712V8.408A.712.712,0,0,0,42.313,7.7ZM11.7,3.424H20.24V36.177H11.7V3.424ZM41.6,43.3H7.424V9.12h2.848V36.889a.712.712,0,0,0,.712.712h9.968a.712.712,0,0,0,.712-.712V9.12H41.6Z" transform="translate(-6 -2)"/>
        <path id="Path_2463" data-name="Path 2463" d="M33.712,20.7H45.1a.712.712,0,0,0,.712-.712V15.712A.712.712,0,0,0,45.1,15H33.712a.712.712,0,0,0-.712.712v4.272A.712.712,0,0,0,33.712,20.7Zm.712-4.272h9.968v2.848H34.424Z" transform="translate(-13.775 -5.744)"/>
        <path id="Path_2464" data-name="Path 2464" d="M33.136,31.272A2.136,2.136,0,1,0,31,29.136,2.138,2.138,0,0,0,33.136,31.272Zm0-2.848a.712.712,0,1,1-.712.712A.713.713,0,0,1,33.136,28.424Z" transform="translate(-13.199 -9.199)"/>
        <path id="Path_2465" data-name="Path 2465" d="M41.136,27a2.136,2.136,0,1,0,2.136,2.136A2.138,2.138,0,0,0,41.136,27Zm0,2.848a.712.712,0,1,1,.712-.712A.713.713,0,0,1,41.136,29.848Z" transform="translate(-15.503 -9.199)"/>
        <path id="Path_2466" data-name="Path 2466" d="M47,29.136A2.136,2.136,0,1,0,49.136,27,2.138,2.138,0,0,0,47,29.136Zm2.848,0a.712.712,0,1,1-.712-.712A.713.713,0,0,1,49.848,29.136Z" transform="translate(-17.807 -9.199)"/>
        <path id="Path_2467" data-name="Path 2467" d="M33.136,39.272A2.136,2.136,0,1,0,31,37.136,2.138,2.138,0,0,0,33.136,39.272Zm0-2.848a.712.712,0,1,1-.712.712A.713.713,0,0,1,33.136,36.424Z" transform="translate(-13.199 -11.503)"/>
        <path id="Path_2468" data-name="Path 2468" d="M41.136,35a2.136,2.136,0,1,0,2.136,2.136A2.138,2.138,0,0,0,41.136,35Zm0,2.848a.712.712,0,1,1,.712-.712A.713.713,0,0,1,41.136,37.848Z" transform="translate(-15.503 -11.503)"/>
        <path id="Path_2469" data-name="Path 2469" d="M49.136,35a2.136,2.136,0,1,0,2.136,2.136A2.138,2.138,0,0,0,49.136,35Zm0,2.848a.712.712,0,1,1,.712-.712A.713.713,0,0,1,49.136,37.848Z" transform="translate(-17.807 -11.503)"/>
        <path id="Path_2470" data-name="Path 2470" d="M33.136,47.272A2.136,2.136,0,1,0,31,45.136,2.138,2.138,0,0,0,33.136,47.272Zm0-2.848a.712.712,0,1,1-.712.712A.713.713,0,0,1,33.136,44.424Z" transform="translate(-13.199 -13.807)"/>
        <path id="Path_2471" data-name="Path 2471" d="M41.136,43a2.136,2.136,0,1,0,2.136,2.136A2.138,2.138,0,0,0,41.136,43Zm0,2.848a.712.712,0,1,1,.712-.712A.713.713,0,0,1,41.136,45.848Z" transform="translate(-15.503 -13.807)"/>
        <path id="Path_2472" data-name="Path 2472" d="M49.136,43a2.136,2.136,0,1,0,2.136,2.136A2.138,2.138,0,0,0,49.136,43Zm0,2.848a.712.712,0,1,1,.712-.712A.713.713,0,0,1,49.136,45.848Z" transform="translate(-17.807 -13.807)"/>
      </g>
    </g>
  </g>
</svg>
