<svg id="HR_Assist" data-name="HR Assist" xmlns="http://www.w3.org/2000/svg" width="38.759" height="39.013" viewBox="0 0 38.759 39.013">
  <path id="Shape_108_" d="M7.2,9.9a2.69,2.69,0,0,0,2.7,2.7H26.108a2.69,2.69,0,0,0,2.7-2.7,2.69,2.69,0,0,1,2.7-2.7h3.9a2.69,2.69,0,0,1,2.7,2.7v12a2.69,2.69,0,0,1-2.7,2.7H3A2.69,2.69,0,0,1,.3,21.9V9.9A2.69,2.69,0,0,1,3,7.2H4.2A2.771,2.771,0,0,1,7.2,9.9Z" transform="translate(0.6 14.407)" fill="#aecdff"/>
  <path id="Shape_109_" d="M36.012,38.713H.9a.958.958,0,0,1-.9-.9H0V22.507a.958.958,0,0,1,.9-.9H8.1a.958.958,0,0,1,.9.9v4.5H29.71v-4.5a.958.958,0,0,1,.9-.9h7.2a.958.958,0,0,1,.9.9v13.5c.3,1.5-.9,2.7-2.7,2.7ZM2.1,36.612H36.912v-13.2h-5.1v4.5a.958.958,0,0,1-.9.9H8.4a.958.958,0,0,1-.9-.9v-4.5H2.4l-.3,13.2ZM35.111,19.206V.9a.958.958,0,0,0-.9-.9H4.8a.958.958,0,0,0-.9.9V19.206a.958.958,0,0,0,.9.9.958.958,0,0,0,.9-.9V2.1H33.011V19.206a.958.958,0,0,0,.9.9C34.211,20.107,35.111,19.806,35.111,19.206Zm-6.9-10.5a.958.958,0,0,0-.9-.9H11.1a.958.958,0,0,0-.9.9.958.958,0,0,0,.9.9H27.309C27.909,9.9,28.209,9.3,28.209,8.7Zm0,8.7a.958.958,0,0,0-.9-.9H11.1a.958.958,0,0,0-.9.9,1.353,1.353,0,0,0,.9.9H27.309C27.909,18.606,28.209,18.006,28.209,17.406Z" fill="#3a4653"/>
</svg>
