<svg xmlns="http://www.w3.org/2000/svg" width="27.9" height="33.429" viewBox="0 0 27.9 33.429">
  <g id="HR_Letters" data-name="HR Letters" transform="translate(-535.05 -860.536)">
    <path id="Shape_45_" d="M467.792,4.419V.9H460.5a.541.541,0,0,0-.5.5v28.15c0,.5.251.754.5.754h25.135a.541.541,0,0,0,.5-.5V1.4a.541.541,0,0,0-.5-.5h-6.032l-2.262,3.519" transform="translate(75.553 861.646)" fill="#aecdff"/>
    <path id="Shape_46_" d="M484.684,2.111H480.16A1.982,1.982,0,0,0,478.149.1h-8.8a2.163,2.163,0,0,0-2.011,2.011v.251h-4.524A2.9,2.9,0,0,0,459.8,5.378V30.513a2.9,2.9,0,0,0,3.016,3.016h21.868a3.056,3.056,0,0,0,3.016-3.016V5.378A3.291,3.291,0,0,0,484.684,2.111ZM467.592,6.886h.252a1.919,1.919,0,0,0,1.257.5h8.8c.5,0,.754-.251,1.257-.5h2.514c.5,0,.754.251.754,1.005V27.5c0,.5-.251,1.005-.754,1.005H465.33c-.5,0-.754-.251-.754-1.005V7.892c0-.5.251-1.005.754-1.005ZM469.1,2.111h0l9.049-.251a.246.246,0,0,1,.251.251V5.127l-.251.251h-8.8a.246.246,0,0,1-.251-.251Zm16.841,28.4a1.63,1.63,0,0,1-1.257,1.508H462.816c-.754,0-1.257-.5-1.257-1.508V5.378a1.346,1.346,0,0,1,1.257-1.257h4.524V5.378H465.33a2.519,2.519,0,0,0-2.514,2.513V27.5a2.519,2.519,0,0,0,2.514,2.513h16.338a2.7,2.7,0,0,0,2.514-2.513V7.892a2.519,2.519,0,0,0-2.514-2.513h-1.76V4.122h4.776a1.187,1.187,0,0,1,1.257,1.257V30.513ZM466.335,12.164a.921.921,0,0,1,1.005-1.005h13.07a.921.921,0,0,1,1.005,1.005.921.921,0,0,1-1.005,1.005h-13.07A.921.921,0,0,1,466.335,12.164Zm0,4.524c0-.5.251-.754,1.005-.754h13.07a.921.921,0,0,1,1.005,1.005.921.921,0,0,1-1.005,1.005h-13.07A1.283,1.283,0,0,1,466.335,16.689Zm0,5.781a.921.921,0,0,1,1.005-1.005h13.07a1.005,1.005,0,0,1,0,2.011h-13.07A.921.921,0,0,1,466.335,22.47Z" transform="translate(75.25 860.436)" fill="#3a4653"/>
  </g>
</svg>
