<svg id="IT_Declaration" data-name="IT Declaration" xmlns="http://www.w3.org/2000/svg" width="24.35" height="24.35" viewBox="0 0 24.35 24.35">
  <g id="Group_252" data-name="Group 252" transform="translate(0)">
    <path id="Path_1848" data-name="Path 1848" d="M25.253,3H8.458a2.1,2.1,0,0,0-2.1,2.1V24.833H3.421a.42.42,0,0,0-.42.42,2.1,2.1,0,0,0,2.1,2.1H23.993a2.1,2.1,0,0,0,2.1-2.1h-.016c.016-.191.016-.466.016-.866V5.519h.84a.419.419,0,0,0,.42-.42A2.1,2.1,0,0,0,25.253,3ZM3.912,25.672H6.287a1.259,1.259,0,0,1-2.374,0Zm21.339-.42a1.261,1.261,0,0,1-1.259,1.259H6.768a2.079,2.079,0,0,0,.43-1.259V5.1a1.259,1.259,0,0,1,2.518,0,.42.42,0,0,0,.42.42H25.252C25.252,8.4,25.252,25.132,25.252,25.253ZM10.514,4.68a2.088,2.088,0,0,0-.378-.839H25.253a1.262,1.262,0,0,1,1.187.839ZM21.054,18.955a3.359,3.359,0,1,0,3.359,3.359A3.363,3.363,0,0,0,21.054,18.955Zm0,5.878a2.519,2.519,0,1,1,2.519-2.519A2.522,2.522,0,0,1,21.054,24.833ZM9.3,6.359H23.153a.42.42,0,1,1,0,.84H9.3a.42.42,0,0,1,0-.84Zm-.42,3.358A.42.42,0,0,1,9.3,9.3H23.153a.42.42,0,1,1,0,.84H9.3A.42.42,0,0,1,8.878,9.718Zm0,3.359a.42.42,0,0,1,.42-.42H23.153a.42.42,0,1,1,0,.84H9.3A.42.42,0,0,1,8.878,13.077Zm0,3.779a.42.42,0,0,1,.42-.42H23.153a.42.42,0,1,1,0,.84H9.3A.42.42,0,0,1,8.878,16.855Zm7.977,3.36a.42.42,0,0,1-.42.42H9.3a.42.42,0,0,1,0-.84h7.137A.42.42,0,0,1,16.855,20.215Z" transform="translate(-3.001 -3.001)" fill="#fc4e65"/>
  </g>
</svg>
