<svg xmlns="http://www.w3.org/2000/svg" width="40.609" height="41.224" viewBox="0 0 40.609 41.224">
  <g id="_leave" data-name=" leave" transform="translate(-3733.668 -1546)">
    <path id="Path_2486" data-name="Path 2486" d="M205.809,81.476h-7.383V78.4H197.2v3.076H173.814V78.4h-1.23v3.076H165.2v38.148h40.609Zm-1.23,36.917H166.431V82.707h6.153V86.4h1.23V82.707H197.2V86.4h1.23V82.707h6.153Z" transform="translate(3568.469 1467.6)" fill="#0667fd"/>
    <path id="Path_2487" data-name="Path 2487" d="M305.2,211.446h9.845V201.6H305.2Zm1.23-8.614h7.383v7.383H306.43Z" transform="translate(3443.851 1357.935)" fill="#0667fd"/>
    <path id="Path_2488" data-name="Path 2488" d="M411.6,211.446h9.845V201.6H411.6Zm1.23-8.614h7.383v7.383H412.83Z" transform="translate(3349.141 1357.935)" fill="#0667fd"/>
    <path id="Path_2489" data-name="Path 2489" d="M198.8,317.843h9.845V308H198.8Zm1.23-8.614h7.383v7.383H200.03Z" transform="translate(3538.56 1263.229)" fill="#0667fd"/>
    <path id="Path_2490" data-name="Path 2490" d="M305.2,317.843h9.845V308H305.2Zm1.23-8.614h7.383v7.383H306.43Z" transform="translate(3443.851 1263.229)" fill="#0667fd"/>
    <path id="Path_2491" data-name="Path 2491" d="M411.6,317.843h9.845V308H411.6Zm1.23-8.614h7.383v7.383H412.83Z" transform="translate(3349.141 1263.229)" fill="#0667fd"/>
    <path id="Path_2492" data-name="Path 2492" d="M198.8,211.446h9.845V201.6H198.8Zm4.307-7.383h1.23v3.076h-1.23Zm0,3.692h1.23v1.23h-1.23Z" transform="translate(3538.56 1357.935)" fill="#0667fd"/>
  </g>
</svg>
