<svg xmlns="http://www.w3.org/2000/svg" width="45.078" height="44.028" viewBox="0 0 45.078 44.028">
  <g id="Leave_Holidays" data-name="Leave &amp; Holidays" transform="translate(-4000.066 4840)">
    <path id="Path_6631" data-name="Path 6631" d="M76.71,15.9H80.7V13.1a1.111,1.111,0,0,1,1.113-1.113h4.227A1.11,1.11,0,0,1,87.152,13.1v2.8h7.76V13.1a1.111,1.111,0,0,1,1.113-1.113h4.222A1.111,1.111,0,0,1,101.36,13.1v2.8h7.76V13.1a1.11,1.11,0,0,1,1.109-1.113h4.227a1.111,1.111,0,0,1,1.113,1.113v2.8h3.993a1.111,1.111,0,0,1,1.113,1.113V54.9a1.111,1.111,0,0,1-1.113,1.113H76.71A1.111,1.111,0,0,1,75.6,54.9V17.012A1.111,1.111,0,0,1,76.71,15.9ZM97.023,27.326a1.113,1.113,0,0,1,2.226,0v5.947l4.2-4.2a1.112,1.112,0,0,1,1.573,1.573l-4.209,4.2h5.947a1.111,1.111,0,0,1,0,2.222h-5.947l4.209,4.2a1.112,1.112,0,0,1-1.573,1.573l-4.2-4.2v5.947a1.113,1.113,0,0,1-2.226,0V38.641l-4.2,4.2a1.112,1.112,0,0,1-1.573-1.573l4.209-4.2H89.507a1.111,1.111,0,0,1,0-2.222h5.947l-4.209-4.2a1.112,1.112,0,0,1,1.573-1.573l4.2,4.2ZM82.925,17.8H84.93V14.207H82.925Zm14.208,0h2.005V14.207H97.133Zm14.208,0h2.005V14.207h-2.005ZM77.818,21.847h40.634V18.121h-2.884v.786a1.111,1.111,0,0,1-1.113,1.113h-4.227a1.11,1.11,0,0,1-1.109-1.113v-.786h-7.76v.786a1.111,1.111,0,0,1-1.113,1.113H96.024a1.111,1.111,0,0,1-1.113-1.113v-.786h-7.76v.786a1.11,1.11,0,0,1-1.109,1.113H81.815A1.111,1.111,0,0,1,80.7,18.908v-.786H77.818Zm40.634,2.222H77.818V47.844h40.634Zm0,26H77.818v3.726h40.634Z" transform="translate(3924.469 -4851.985)" fill="#0667fd"/>
  </g>
</svg>
