<svg xmlns="http://www.w3.org/2000/svg" width="36.299" height="36.299" viewBox="0 0 36.299 36.299">
  <g id="user-manual" transform="translate(-459 -989.701)">
    <rect id="Rectangle_2788" data-name="Rectangle 2788" width="6" height="7" transform="translate(469 991)" fill="#3b86ff" opacity="0.4"/>
    <g id="Group_1252" data-name="Group 1252" transform="translate(-981 -188.299)">
      <path id="Path_2454" data-name="Path 2454" d="M8,960.362v36.3H44.3v-36.3Zm1.729,1.729h2.593v32.842H9.729Zm4.321,0h2.665v11.926l4.062-5.311,4.063,5.311V962.091H42.57v32.842H14.05Zm4.394,0h4.668v6.82l-2.334-3.05-2.335,3.052Z" transform="translate(1432 217.638)" fill-rule="evenodd"/>
      <path id="Path_2455" data-name="Path 2455" d="M30.8,1000.58v1.3H52.4v-1.3Z" transform="translate(1419.055 194.8)" fill="#3b86ff" fill-rule="evenodd"/>
      <path id="Path_2456" data-name="Path 2456" d="M30.8,1013.11v1.3H52.4v-1.3Z" transform="translate(1419.055 187.684)" fill="#3b86ff" fill-rule="evenodd"/>
      <path id="Path_2457" data-name="Path 2457" d="M30.8,1025.63v1.3H52.4v-1.3Z" transform="translate(1419.055 180.574)" fill="#3b86ff" fill-rule="evenodd"/>
      <path id="Path_2458" data-name="Path 2458" d="M55.8,975.535v1.3H66.6v-1.3H55.8Z" transform="translate(1404.858 209.022)" fill="#3b86ff" fill-rule="evenodd"/>
      <path id="Path_2459" data-name="Path 2459" d="M55.8,988.061v1.3H66.6v-1.3H55.8Z" transform="translate(1404.858 201.909)" fill="#3b86ff" fill-rule="evenodd"/>
    </g>
  </g>
</svg>
