<svg xmlns="http://www.w3.org/2000/svg" width="33.246" height="40.839" viewBox="0 0 33.246 40.839">
  <g id="vital-cotact" transform="translate(-197.053 -985.162)">
    <circle id="Ellipse_39" data-name="Ellipse 39" cx="4.5" cy="4.5" r="4.5" transform="translate(208 997)" fill="#3b86ff"/>
    <path id="Path_2461" data-name="Path 2461" d="M1779.49,1047.2s.309-2.472.275-2.644,4.189-3.5,4.189-3.5l3.674-.481,4.567,1.511,2.644,3.4v2.4l-14.147.549Z" transform="translate(-1575 -34)" fill="#3b86ff" opacity="0.41"/>
    <path id="Path_2460" data-name="Path 2460" d="M6.974,34a3.468,3.468,0,0,0-3.458,3.46h-.7a.692.692,0,1,0,0,1.384h.7V43h-.7a.692.692,0,1,0,0,1.384h.7v4.155h-.7a.692.692,0,1,0,0,1.384h.7v4.149h-.7a.692.692,0,1,0,0,1.384h.7V59.61h-.7a.692.692,0,1,0,0,1.384h.7v4.155h-.7c-1.035.421-.613,1.014,0,1.384h.7v4.155h-.7c-1.036.421-.612,1.015,0,1.386h.767a3.472,3.472,0,0,0,3.388,2.763H27.741a3.469,3.469,0,0,0,3.46-3.46v-2.2a2.035,2.035,0,0,0,.695.13H33.28a2.088,2.088,0,0,0,2.075-2.079V63.075a2.09,2.09,0,0,0-2.075-2.081H31.9a2.034,2.034,0,0,0-.695.13V58.1a2.042,2.042,0,0,0,.695.128H33.28a2.085,2.085,0,0,0,2.075-2.075V52a2.085,2.085,0,0,0-2.075-2.075H31.9a2.044,2.044,0,0,0-.695.13V47.023a2.035,2.035,0,0,0,.695.13H33.28a2.09,2.09,0,0,0,2.075-2.081V40.924a2.09,2.09,0,0,0-2.075-2.081H31.9a2.034,2.034,0,0,0-.695.13V37.459A3.469,3.469,0,0,0,27.741,34Zm0,1.384H27.741a2.064,2.064,0,0,1,2.075,2.075V71.378a2.069,2.069,0,0,1-2.075,2.081H6.974a2.055,2.055,0,0,1-1.947-1.384H5.59c1.033-.423.617-1.015,0-1.386H4.9V66.534h.69c1.033-.422.616-1.014,0-1.384H4.9V60.994h.69a.692.692,0,1,0,0-1.384H4.9V55.455h.69a.692.692,0,0,0,0-1.384H4.9V49.922h.69a.692.692,0,1,0,0-1.384H4.9V44.382h.69A.692.692,0,0,0,5.59,43H4.9V38.843h.69a.692.692,0,0,0,0-1.384H4.9a2.063,2.063,0,0,1,2.074-2.075ZM31.9,40.228H33.28a.683.683,0,0,1,.69.7v4.148a.682.682,0,0,1-.69.695H31.9a.687.687,0,0,1-.695-.695V40.924A.688.688,0,0,1,31.9,40.228Zm-14.538,4.5A5.531,5.531,0,0,0,14.341,54.9a8.579,8.579,0,0,0-5.793,6.333,2.174,2.174,0,0,0,2.208,2.528H24.283a1.929,1.929,0,0,0,1.947-2.186A8.565,8.565,0,0,0,20.37,54.9a5.53,5.53,0,0,0-3.012-10.174Zm0,1.379A4.155,4.155,0,1,1,13.2,50.265,4.145,4.145,0,0,1,17.358,46.11Zm14.538,5.2H33.28a.677.677,0,0,1,.69.69V56.15a.679.679,0,0,1-.69.691H31.9a.683.683,0,0,1-.695-.691V52A.682.682,0,0,1,31.9,51.307ZM17.358,55.8a7.363,7.363,0,0,1,7.506,6.01c.054.319-.194.566-.581.566H10.756c-.563,0-.954-.384-.853-.859A7.384,7.384,0,0,1,17.358,55.8ZM31.9,62.38H33.28a.682.682,0,0,1,.69.695v4.149a.682.682,0,0,1-.69.695H31.9a.687.687,0,0,1-.695-.695V63.075A.687.687,0,0,1,31.9,62.38Z" transform="translate(194.943 951.163)"/>
  </g>
</svg>
